<svg width="71" height="71" viewBox="0 0 71 71" fill="none" xmlns="http://www.w3.org/2000/svg">
<path fill-rule="evenodd" clip-rule="evenodd" d="M70.5 35.334C70.5 17.3566 56.9463 2.54494 39.5 0.560059V5.59833C54.1774 7.5539 65.5 20.1217 65.5 35.334C65.5 51.9025 52.0685 65.334 35.5 65.334C18.9315 65.334 5.5 51.9025 5.5 35.334H0.5C0.5 54.6639 16.17 70.334 35.5 70.334C54.83 70.334 70.5 54.6639 70.5 35.334Z" fill="#004CFF"/>
<path d="M39.5 0.560059L39.5565 0.0632629L39 -5.34058e-05V0.560059H39.5ZM39.5 5.59833H39V6.03613L39.434 6.09395L39.5 5.59833ZM5.5 35.334H6V34.834H5.5V35.334ZM0.5 35.334L0.5 34.834H0V35.334H0.5ZM39.4435 1.05685C56.64 3.01332 70 17.6138 70 35.334H71C71 17.0995 57.2526 2.07657 39.5565 0.0632629L39.4435 1.05685ZM40 5.59833V0.560059H39V5.59833H40ZM66 35.334C66 19.8677 54.4886 7.09093 39.566 5.10271L39.434 6.09395C53.8663 8.01686 65 20.3756 65 35.334H66ZM35.5 65.834C52.3447 65.834 66 52.1787 66 35.334H65C65 51.6264 51.7924 64.834 35.5 64.834V65.834ZM5 35.334C5 52.1787 18.6553 65.834 35.5 65.834V64.834C19.2076 64.834 6 51.6264 6 35.334H5ZM0.5 35.834H5.5V34.834H0.5L0.5 35.834ZM35.5 69.834C16.4462 69.834 1 54.3878 1 35.334H0C0 54.9401 15.8939 70.834 35.5 70.834V69.834ZM70 35.334C70 54.3878 54.5538 69.834 35.5 69.834V70.834C55.1061 70.834 71 54.9401 71 35.334H70Z" fill="#004CFF"/>
</svg>
