<svg width="14" height="14" viewBox="0 0 14 14" fill="none" xmlns="http://www.w3.org/2000/svg">
<path d="M8.65883 6.99818L13.6591 1.99791C14.1137 1.54334 14.1137 0.795498 13.6591 0.340928C13.2045 -0.113643 12.4567 -0.113643 12.0021 0.340928L7.00185 5.3412L2.00158 0.340929C1.54701 -0.113642 0.799165 -0.113642 0.344595 0.340929C0.11731 0.568214 9.94436e-07 0.868817 9.94436e-07 1.16942C9.94436e-07 1.47002 0.11731 1.77063 0.344595 1.99791L5.34487 6.99818L0.344594 11.9985C0.117309 12.2257 0 12.5263 0 12.8269C0 13.1275 0.117309 13.4281 0.344594 13.6554C0.799164 14.11 1.547 14.11 2.00158 13.6554L7.00185 8.65516L12.0021 13.6554C12.4567 14.11 13.2045 14.11 13.6591 13.6554C14.1137 13.2009 14.1137 12.453 13.6591 11.9985L8.65883 6.99818Z" fill="black"/>
</svg>
