<svg width="214" height="214" viewBox="0 0 214 214" fill="none" xmlns="http://www.w3.org/2000/svg">
<g clip-path="url(#clip0_0_4143)">
<mask id="mask0_0_4143" style="mask-type:luminance" maskUnits="userSpaceOnUse" x="1" y="1" width="212" height="212">
<path fill-rule="evenodd" clip-rule="evenodd" d="M105.164 212.164C47.0836 211.15 0.82184 163.245 1.83564 105.164C2.84944 47.0836 50.7549 0.821713 108.836 1.83551C166.916 2.84932 213.178 50.7549 212.164 108.836C211.15 166.916 163.245 213.178 105.164 212.164ZM105.531 191.131C59.0669 190.32 22.0575 151.996 22.8685 105.531C23.6796 59.0668 62.004 22.0573 108.468 22.8684C154.933 23.6794 191.942 62.0039 191.131 108.468C190.32 154.933 151.996 191.942 105.531 191.131Z" fill="white"/>
</mask>
<g mask="url(#mask0_0_4143)">
</g>
<path opacity="0.01" fill-rule="evenodd" clip-rule="evenodd" d="M1.8602 101.771C4.90038 43.7612 54.3912 -0.800558 112.401 2.23961C170.411 5.27978 214.973 54.7706 211.933 112.781C208.892 170.79 159.402 215.352 101.392 212.312C43.3818 209.272 -1.17997 159.781 1.8602 101.771ZM22.8674 102.872C25.2996 56.4642 64.8922 20.8147 111.3 23.2469C157.708 25.679 193.357 65.2717 190.925 111.68C188.493 158.088 148.9 193.737 102.493 191.305C56.0847 188.873 20.4353 149.28 22.8674 102.872Z" fill="#E5EBFC"/>
<path fill-rule="evenodd" clip-rule="evenodd" d="M112.886 202.36C112.581 208.171 107.624 212.635 101.813 212.33C101.671 212.323 101.531 212.313 101.391 212.3L101.391 212.308C43.2813 209.262 -1.35709 159.686 1.68831 101.576C4.73371 43.4668 54.3097 -1.17166 112.419 1.87374L112.419 1.88214C112.559 1.88396 112.7 1.88855 112.841 1.89595C118.652 2.20049 123.116 7.1581 122.811 12.9691C122.507 18.78 117.549 23.2439 111.738 22.9393C111.597 22.9319 111.457 22.9218 111.317 22.9089L111.317 22.9171C64.8288 20.4808 25.168 56.1916 22.7317 102.679C20.2954 149.167 56.0061 188.828 102.494 191.264L102.493 191.273C102.634 191.275 102.774 191.28 102.915 191.287C108.726 191.591 113.19 196.549 112.886 202.36Z" fill="#9DEB44"/>
<g clip-path="url(#clip1_0_4143)">
<path opacity="0.01" fill-rule="evenodd" clip-rule="evenodd" d="M211.446 106.706C211.446 164.67 164.457 211.66 106.493 211.66C48.5286 211.66 1.53938 164.67 1.53938 106.706C1.53938 48.742 48.5286 1.7527 106.493 1.7527C164.457 1.7527 211.446 48.742 211.446 106.706ZM190.456 106.706C190.456 153.077 152.864 190.669 106.493 190.669C60.1215 190.669 22.5301 153.077 22.5301 106.706C22.5301 60.3348 60.1215 22.7434 106.493 22.7434C152.864 22.7434 190.456 60.3348 190.456 106.706Z" fill="#E5EBFC"/>
<path fill-rule="evenodd" clip-rule="evenodd" d="M95.7652 12.2646C95.7652 6.44561 100.482 1.72843 106.301 1.72843C106.443 1.72843 106.584 1.73121 106.724 1.73673V1.72903C164.913 1.72903 212.085 48.9009 212.085 107.09C212.085 165.28 164.913 212.452 106.724 212.452V212.443C106.584 212.449 106.443 212.452 106.301 212.452C100.482 212.452 95.7652 207.734 95.7652 201.915C95.7652 196.096 100.482 191.379 106.301 191.379C106.443 191.379 106.584 191.382 106.724 191.388V191.379C153.275 191.379 191.013 153.642 191.013 107.09C191.013 60.5388 153.275 22.8013 106.724 22.8013V22.7924C106.584 22.7979 106.443 22.8007 106.301 22.8007C100.482 22.8007 95.7652 18.0835 95.7652 12.2646Z" fill="#FE7F00"/>
</g>
<g clip-path="url(#clip2_0_4143)">
<path opacity="0.01" fill-rule="evenodd" clip-rule="evenodd" d="M174.505 187.472C130.006 224.811 63.6628 219.007 26.3236 174.508C-11.0156 130.009 -5.21135 63.6656 39.2878 26.3264C83.7869 -11.0128 150.13 -5.20852 187.469 39.2906C224.808 83.7898 219.004 150.133 174.505 187.472ZM160.983 171.358C125.384 201.229 72.3095 196.585 42.4382 160.986C12.5668 125.387 17.2102 72.3124 52.8095 42.441C88.4088 12.5696 141.483 17.213 171.355 52.8124C201.226 88.4117 196.583 141.486 160.983 171.358Z" fill="#E5EBFC"/>
<path fill-rule="evenodd" clip-rule="evenodd" d="M172.352 37.6719C176.809 33.9316 183.455 34.513 187.195 38.9706C187.286 39.0789 187.375 39.1886 187.46 39.2994L187.466 39.2945C224.87 83.8702 219.055 150.327 174.48 187.731C129.904 225.134 63.4469 219.32 26.0435 174.744L26.0498 174.739C25.9556 174.635 25.8629 174.529 25.772 174.421C22.0317 169.963 22.6131 163.318 27.0707 159.577C31.5282 155.837 38.174 156.418 41.9143 160.876C42.0052 160.984 42.0936 161.094 42.1794 161.205L42.1857 161.199C72.1085 196.86 125.274 201.511 160.935 171.589C196.595 141.666 201.247 88.5 171.324 52.8395L171.331 52.8337C171.237 52.73 171.144 52.6239 171.053 52.5156C167.313 48.058 167.894 41.4123 172.352 37.6719Z" fill="#F34D75"/>
</g>
<g clip-path="url(#clip3_0_4143)">
<path opacity="0.01" fill-rule="evenodd" clip-rule="evenodd" d="M105.164 212.165C47.0833 211.151 0.821472 163.245 1.83527 105.165C2.84908 47.084 50.7546 0.822203 108.835 1.836C166.916 2.84981 213.178 50.7553 212.164 108.836C211.15 166.917 163.245 213.179 105.164 212.165ZM105.531 191.132C59.0665 190.321 22.0571 151.996 22.8681 105.532C23.6792 59.0673 62.0036 22.0578 108.468 22.8689C154.933 23.6799 191.942 62.0043 191.131 108.469C190.32 154.933 151.996 191.943 105.531 191.132Z" fill="#E5EBFC"/>
<path fill-rule="evenodd" clip-rule="evenodd" d="M201.817 97.6961C207.635 97.7977 212.269 102.596 212.167 108.415C212.165 108.556 212.159 108.696 212.152 108.836L212.159 108.836C211.144 167.016 163.156 213.358 104.975 212.342C46.7947 211.327 0.453297 163.339 1.46884 105.158L1.47805 105.158C1.47499 105.019 1.47467 104.878 1.47713 104.737C1.57869 98.9188 6.37747 94.2847 12.1955 94.3863C18.0136 94.4878 22.6477 99.2866 22.5462 105.105C22.5437 105.246 22.5385 105.386 22.5305 105.526L22.5379 105.526C21.7254 152.07 58.7985 190.461 105.343 191.273C151.887 192.086 190.278 155.013 191.09 108.468L191.099 108.468C191.096 108.328 191.096 108.188 191.098 108.047C191.2 102.229 195.998 97.5945 201.817 97.6961Z" fill="#003BE3"/>
</g>
</g>
<defs>
<clipPath id="clip0_0_4143">
<rect width="213.074" height="213.074" fill="white" transform="scale(1.00435)"/>
</clipPath>
<clipPath id="clip1_0_4143">
<rect width="285.342" height="255.969" fill="white" transform="translate(-74.4977 -23.558) scale(1.00435)"/>
</clipPath>
<clipPath id="clip2_0_4143">
<rect width="285.342" height="255.969" fill="white" transform="translate(90.3504 -115.783) scale(1.00435) rotate(50)"/>
</clipPath>
<clipPath id="clip3_0_4143">
<rect width="285.342" height="255.969" fill="white" transform="translate(240.605 -71.9168) scale(1.00435) rotate(91)"/>
</clipPath>
</defs>
</svg>
