<svg width="29" height="25" viewBox="0 0 29 25" fill="none" xmlns="http://www.w3.org/2000/svg">
<g clip-path="url(#clip0_0_7105)">
<path d="M8.01691 21.9831V5.21846L11.1808 0.999985H24.8362L28 5.21845V21.9831C28 22.7798 27.3542 23.4257 26.5574 23.4257H9.45949C8.66277 23.4257 8.01691 22.7798 8.01691 21.9831Z" stroke="#004CFF" stroke-width="2" stroke-linecap="round" stroke-linejoin="round"/>
<path d="M9.0169 4.88469H27" stroke="#004CFF" stroke-width="2" stroke-linecap="round" stroke-linejoin="round"/>
<path d="M22.8931 9.76988C22.8931 12.4679 20.706 14.655 18.008 14.655C15.31 14.655 13.1229 12.4679 13.1229 9.76988" stroke="#004CFF" stroke-width="2" stroke-linecap="round" stroke-linejoin="round"/>
</g>
<g clip-path="url(#clip1_0_7105)">
<path d="M16.9997 15.9998C16.9997 20.418 13.4181 23.9996 8.99987 23.9996C4.58165 23.9996 0.999985 20.418 0.999985 15.9998C0.999985 11.5816 4.58165 7.99988 8.99987 7.99988C13.4181 7.99988 16.9997 11.5816 16.9997 15.9998Z" fill="white" stroke="#004BFE" stroke-width="2"/>
<g clip-path="url(#clip2_0_7105)">
<path d="M9.0819 12.7518V19.4116" stroke="#004BFE" stroke-width="2" stroke-linecap="round"/>
<path d="M12.4118 16.0818H5.75193" stroke="#004BFE" stroke-width="2" stroke-linecap="round"/>
</g>
</g>
<defs>
<clipPath id="clip0_0_7105">
<rect width="21.9834" height="24.426" fill="white" transform="translate(7.01693)"/>
</clipPath>
<clipPath id="clip1_0_7105">
<rect width="18" height="18" fill="white" transform="translate(0 6.9999)"/>
</clipPath>
<clipPath id="clip2_0_7105">
<rect width="6.65998" height="6.65998" fill="white" transform="translate(5.75193 12.7518)"/>
</clipPath>
</defs>
</svg>
