<svg width="24" height="23" viewBox="0 0 24 23" fill="none" xmlns="http://www.w3.org/2000/svg">
<g clip-path="url(#clip0_0_1771)">
<path d="M23.7868 9.35295C24.1983 8.99692 23.9778 8.32058 23.4357 8.27377L15.6202 7.60236L23.7868 9.35295ZM23.7868 9.35295L17.8587 14.489L23.7868 9.35295ZM9.33499 8.00466L12.0001 1.69785L14.6653 8.00583L14.9086 8.58173L15.5315 8.63524L22.3554 9.22147L17.1798 13.7054L16.7073 14.1148L16.8489 14.7237L18.3998 21.3938L12.5361 17.8576L12.0008 17.5347L11.4654 17.8576L5.60176 21.3938L7.1526 14.7237L7.29418 14.1148L6.82169 13.7054L1.64489 9.22024L8.4688 8.63401L9.09165 8.5805L9.33499 8.00466ZM23.1085 8.569L23.108 8.56943L23.1085 8.569Z" fill="#004CFF" stroke="#004CFF" stroke-width="2"/>
</g>
<defs>
<clipPath id="clip0_0_1771">
<rect width="23.1506" height="22.0769" fill="white" transform="scale(1.03669)"/>
</clipPath>
</defs>
</svg>
