<svg width="57" height="35" viewBox="0 0 57 35" fill="none" xmlns="http://www.w3.org/2000/svg">
<g clip-path="url(#clip0_9_5987)">
<rect x="20.6681" y="3.70621" width="15.2525" height="27.4808" fill="#FF5F00"/>
<path d="M21.5885 17.5124C21.5885 12.1215 24.0868 7.12491 28.2943 3.70628C20.6682 -2.21065 9.75483 -0.895758 3.70626 6.59891C-2.21066 14.2252 -0.895741 25.1386 6.59896 31.1871C12.9104 36.1835 21.8515 36.1835 28.1628 31.1871C24.0868 27.8999 21.5885 22.9034 21.5885 17.5124Z" fill="#EB001B"/>
<path fill-rule="evenodd" clip-rule="evenodd" d="M56.5636 17.5123C56.5636 27.1108 48.8059 35 39.0759 35C35.1313 35 31.3182 33.6851 28.2939 31.3184C35.9201 25.4015 37.2351 14.3565 31.1867 6.86181C30.2662 5.80994 29.3458 4.758 28.2939 3.96905C35.9201 -1.94784 46.8335 -0.632981 52.7504 6.86181C55.2487 9.75451 56.5636 13.5677 56.5636 17.5123ZM54.8544 28.2942V27.7682H55.1173V27.6368H54.5913V27.7682H54.8544V28.2942ZM56.0377 28.2942V27.6368H55.9062L55.6432 28.1627L55.3802 27.6368H55.2487V28.2942H55.3802V27.7682L55.6432 28.1627H55.7746L55.9061 27.7682V28.2942H56.0377Z" fill="#F79E1B"/>
</g>
<defs>
<clipPath id="clip0_9_5987">
<rect width="56.2259" height="34.7908" fill="white" transform="scale(1.00601)"/>
</clipPath>
</defs>
</svg>
