<svg width="23" height="21" viewBox="0 0 23 21" fill="none" xmlns="http://www.w3.org/2000/svg">
<g clip-path="url(#clip0_2_5676)">
<path d="M11.2045 18.965C16.1353 15.5847 18.7214 12.5095 19.7819 9.93577C21.7734 5.10128 18.3826 2.03525 15.0383 2.03525C13.6114 2.03525 12.1925 2.59391 11.2045 3.81162C10.2164 2.59366 8.79797 2.03525 7.37076 2.03525C4.02681 2.03525 0.635893 5.1017 2.62719 9.93577C3.68774 12.5095 6.27374 15.5847 11.2045 18.965ZM11.2045 21.0002C10.8025 21.0002 10.4005 20.8814 10.0537 20.6436C5.23047 17.3371 2.0987 13.9953 0.745429 10.7112C-0.379864 7.97941 -0.228247 5.3232 1.17225 3.23161C2.50697 1.23828 4.8821 0 7.37076 0C8.76506 0 10.0899 0.392615 11.2046 1.11202C12.3192 0.392618 13.644 0 15.0383 0C17.5272 0 19.9024 1.23823 21.237 3.23147C22.6375 5.32298 22.789 7.97924 21.6638 10.711C20.3104 13.9953 17.1786 17.337 12.3553 20.6436C12.0086 20.8814 11.6066 21.0002 11.2045 21.0002Z" fill="black"/>
</g>
<defs>
<clipPath id="clip0_2_5676">
<rect width="22.022" height="20.636" fill="white" transform="scale(1.01763)"/>
</clipPath>
</defs>
</svg>
