<svg width="26" height="24" viewBox="0 0 26 24" fill="none" xmlns="http://www.w3.org/2000/svg">
<path d="M24.6972 11.0095C25.6656 8.65855 25.6843 6.65865 25.1438 5.06757C24.6023 3.47318 23.4843 2.24452 22.1004 1.46335C19.3103 -0.11158 15.5459 0.173765 13.3883 2.83323L13 3.31183L12.6117 2.83323C10.4541 0.173765 6.68965 -0.11158 3.8996 1.46335C2.51571 2.24452 1.39772 3.47318 0.856159 5.06757C0.315723 6.65865 0.334418 8.65855 1.30281 11.0095H24.6972ZM24.6972 11.0095C23.2658 14.4831 19.7655 18.7054 13 23.3928C6.23455 18.7054 2.73424 14.4832 1.30283 11.0095L24.6972 11.0095Z" stroke="#202020"/>
</svg>
