<svg width="15" height="17" viewBox="0 0 15 17" fill="none" xmlns="http://www.w3.org/2000/svg">
<path fill-rule="evenodd" clip-rule="evenodd" d="M6.375 0C5.20625 0 4.25 0.95625 4.25 2.125H2.125C0.95625 2.125 0 3.08125 0 4.25H14.875C14.875 3.08125 13.9188 2.125 12.75 2.125H10.625C10.625 0.95625 9.66875 0 8.5 0H6.375ZM2.125 6.375V16.5962C2.125 16.83 2.295 17 2.52875 17H12.3675C12.6012 17 12.7712 16.83 12.7712 16.5962V6.375H10.6462V13.8125C10.6462 14.4075 10.1787 14.875 9.58375 14.875C8.98875 14.875 8.52125 14.4075 8.52125 13.8125V6.375H6.39625V13.8125C6.39625 14.4075 5.92875 14.875 5.33375 14.875C4.73875 14.875 4.27125 14.4075 4.27125 13.8125V6.375H2.14625H2.125Z" fill="#F1AEAE"/>
</svg>
