<svg width="356" height="100" viewBox="0 0 356 100" fill="none" xmlns="http://www.w3.org/2000/svg">
<g filter="url(#filter0_d_0_6777)">
<mask id="path-1-inside-1_0_6777" fill="white">
<path fill-rule="evenodd" clip-rule="evenodd" d="M10 9C10 4.02943 14.0294 0 19 0H337C341.971 0 346 4.02944 346 9V40C340.477 40 336 44.4772 336 50C336 55.5228 340.477 60 346 60V91C346 95.9706 341.971 100 337 100H19C14.0294 100 10 95.9706 10 91V60C15.5228 60 20 55.5228 20 50C20 44.4772 15.5228 40 10 40V9Z"/>
</mask>
<path fill-rule="evenodd" clip-rule="evenodd" d="M10 9C10 4.02943 14.0294 0 19 0H337C341.971 0 346 4.02944 346 9V40C340.477 40 336 44.4772 336 50C336 55.5228 340.477 60 346 60V91C346 95.9706 341.971 100 337 100H19C14.0294 100 10 95.9706 10 91V60C15.5228 60 20 55.5228 20 50C20 44.4772 15.5228 40 10 40V9Z" fill="white"/>
<path d="M346 40V41H347V40H346ZM346 60H347V59H346V60ZM10 60V59H9V60H10ZM10 40H9V41H10V40ZM19 -1C13.4772 -1 9 3.47715 9 9H11C11 4.58172 14.5817 1 19 1V-1ZM337 -1H19V1H337V-1ZM347 9C347 3.47715 342.523 -1 337 -1V1C341.418 1 345 4.58172 345 9H347ZM347 40V9H345V40H347ZM346 39C339.925 39 335 43.9249 335 50H337C337 45.0294 341.029 41 346 41V39ZM335 50C335 56.0751 339.925 61 346 61V59C341.029 59 337 54.9706 337 50H335ZM347 91V60H345V91H347ZM337 101C342.523 101 347 96.5229 347 91H345C345 95.4183 341.418 99 337 99V101ZM19 101H337V99H19V101ZM9 91C9 96.5229 13.4772 101 19 101V99C14.5817 99 11 95.4183 11 91H9ZM9 60V91H11V60H9ZM19 50C19 54.9706 14.9706 59 10 59V61C16.0751 61 21 56.0751 21 50H19ZM10 41C14.9706 41 19 45.0294 19 50H21C21 43.9249 16.0751 39 10 39V41ZM9 9V40H11V9H9Z" fill="#004CFF" mask="url(#path-1-inside-1_0_6777)"/>
</g>
<defs>
<filter id="filter0_d_0_6777" x="4" y="-3" width="348" height="112" filterUnits="userSpaceOnUse" color-interpolation-filters="sRGB">
<feFlood flood-opacity="0" result="BackgroundImageFix"/>
<feColorMatrix in="SourceAlpha" type="matrix" values="0 0 0 0 0 0 0 0 0 0 0 0 0 0 0 0 0 0 127 0" result="hardAlpha"/>
<feOffset dy="3"/>
<feGaussianBlur stdDeviation="3"/>
<feColorMatrix type="matrix" values="0 0 0 0 0 0 0 0 0 0 0 0 0 0 0 0 0 0 0.160784 0"/>
<feBlend mode="normal" in2="BackgroundImageFix" result="effect1_dropShadow_0_6777"/>
<feBlend mode="normal" in="SourceGraphic" in2="effect1_dropShadow_0_6777" result="shape"/>
</filter>
</defs>
</svg>
