<svg width="70" height="70" viewBox="0 0 70 70" fill="none" xmlns="http://www.w3.org/2000/svg">
<g clip-path="url(#clip0_0_7889)">
<path d="M35.0047 52.3143L32.6451 49.9379C23.9457 42.1958 18.1937 36.9727 18.1937 30.5573C18.1641 28.0986 19.1277 25.732 20.8664 23.9933C22.6051 22.2546 24.9718 21.2909 27.4305 21.3205C30.3434 21.3537 33.0994 22.646 34.9879 24.8641C36.8764 22.646 39.6324 21.3537 42.5453 21.3205C45.004 21.2909 47.3707 22.2546 49.1094 23.9933C50.8481 25.732 51.8118 28.0986 51.7822 30.5573C51.7822 36.9727 46.0721 42.1958 37.3307 49.9547L35.0047 52.3143Z" stroke="#004CFF" stroke-width="3" stroke-linecap="round"/>
<path d="M34.863 0V8.39713" stroke="#004CFF" stroke-width="3" stroke-linecap="round"/>
<path d="M17.3607 4.81982L21.5593 12.0917" stroke="#004CFF" stroke-width="3" stroke-linecap="round"/>
<path d="M4.66882 17.6094L11.9407 21.8079" stroke="#004CFF" stroke-width="3" stroke-linecap="round"/>
<path d="M0 35.1455H8.39713" stroke="#004CFF" stroke-width="3" stroke-linecap="round"/>
<path d="M4.81995 52.6395L12.0919 48.4409" stroke="#004CFF" stroke-width="3" stroke-linecap="round"/>
<path d="M17.6095 65.331L21.8081 58.0591" stroke="#004CFF" stroke-width="3" stroke-linecap="round"/>
<path d="M35.1453 70.0002V61.603" stroke="#004CFF" stroke-width="3" stroke-linecap="round"/>
<path d="M52.6394 65.1884L48.4408 57.9165" stroke="#004CFF" stroke-width="3" stroke-linecap="round"/>
<path d="M65.3312 52.3905L58.0593 48.1919" stroke="#004CFF" stroke-width="3" stroke-linecap="round"/>
<path d="M70 34.8633H61.6029" stroke="#004CFF" stroke-width="3" stroke-linecap="round"/>
<path d="M65.1884 17.3608L57.9165 21.5594" stroke="#004CFF" stroke-width="3" stroke-linecap="round"/>
<path d="M52.3905 4.66895L48.1919 11.9409" stroke="#004CFF" stroke-width="3" stroke-linecap="round"/>
</g>
<defs>
<clipPath id="clip0_0_7889">
<rect width="70" height="70" fill="white"/>
</clipPath>
</defs>
</svg>
