<svg width="26" height="20" viewBox="0 0 26 20" fill="none" xmlns="http://www.w3.org/2000/svg">
<g clip-path="url(#clip0_0_1751)">
<g clip-path="url(#clip1_0_1751)">
<path d="M20.3538 20.0001H5.56758C5.37638 20.0001 5.22122 19.8453 5.22122 19.6537V8.21843L4.10183 9.33782C3.97193 9.46773 3.74195 9.46773 3.61211 9.33782L0.101564 5.82763C-0.0338546 5.69221 -0.0338546 5.47332 0.101564 5.3379L5.28948 0.149986C5.35252 0.0606552 5.45398 0 5.56792 0H9.09338C9.28458 0 9.43974 0.155153 9.43974 0.34635C9.43974 2.28795 11.0194 3.86763 12.961 3.86763C14.9026 3.86763 16.4823 2.28795 16.4823 0.34635C16.4823 0.155153 16.6371 0 16.8287 0H20.3541C20.4805 0 20.5913 0.0679099 20.6517 0.169025L25.8202 5.3379C25.8853 5.40303 25.9216 5.49097 25.9216 5.5828C25.9216 5.67462 25.8853 5.76291 25.8202 5.82768L22.3093 9.33788C22.1739 9.4733 21.955 9.4733 21.8196 9.33788L20.7002 8.21849V19.6538C20.7001 19.8452 20.5449 20.0001 20.3538 20.0001Z" fill="#004CFF"/>
</g>
</g>
<defs>
<clipPath id="clip0_0_1751">
<rect width="25.9112" height="19.992" fill="white" transform="scale(1.0004)"/>
</clipPath>
<clipPath id="clip1_0_1751">
<rect width="25.9112" height="19.992" fill="white" transform="scale(1.0004)"/>
</clipPath>
</defs>
</svg>
