<svg width="35" height="35" viewBox="0 0 35 35" fill="none" xmlns="http://www.w3.org/2000/svg">
<g clip-path="url(#clip0_0_979)">
<path d="M17.5 35C27.165 35 35 27.165 35 17.5C35 7.83502 27.165 0 17.5 0C7.83502 0 0 7.83502 0 17.5C0 27.165 7.83502 35 17.5 35Z" fill="#E5EBFC"/>
</g>
<g clip-path="url(#clip1_0_979)">
<path d="M19.5981 17.9646C19.5981 19.0032 18.7562 19.8451 17.7176 19.8451C16.679 19.8451 15.837 19.0032 15.837 17.9646C15.837 16.9259 16.679 16.084 17.7176 16.084C18.7562 16.084 19.5981 16.9259 19.5981 17.9646Z" stroke="#004BFE" stroke-linecap="round" stroke-linejoin="round"/>
<path d="M22.2158 19.788C22.0503 20.1631 22.1297 20.6012 22.4164 20.8943L22.4529 20.9308C22.6812 21.1588 22.8094 21.4683 22.8094 21.7909C22.8094 22.1136 22.6812 22.423 22.4529 22.6511C22.2248 22.8794 21.9154 23.0076 21.5927 23.0076C21.2701 23.0076 20.9606 22.8794 20.7326 22.6511L20.6961 22.6146C20.403 22.3279 19.9649 22.2485 19.5898 22.414C19.2224 22.5715 18.9835 22.9321 18.9819 23.3319V23.4352C18.9819 24.1067 18.4376 24.651 17.7662 24.651C17.0948 24.651 16.5505 24.1067 16.5505 23.4352V23.3805C16.5408 22.9688 16.2805 22.6048 15.894 22.4626C15.5189 22.2971 15.0807 22.3765 14.7876 22.6632L14.7512 22.6997C14.5231 22.928 14.2137 23.0563 13.891 23.0563C13.5684 23.0563 13.2589 22.928 13.0309 22.6997C12.8026 22.4717 12.6743 22.1622 12.6743 21.8396C12.6743 21.5169 12.8026 21.2075 13.0309 20.9794L13.0674 20.943C13.3541 20.6499 13.4335 20.2118 13.268 19.8366C13.1105 19.4692 12.7498 19.2304 12.3501 19.2288L12.2467 19.2288C11.5753 19.2288 11.031 18.6845 11.031 18.013C11.031 17.3416 11.5753 16.7973 12.2467 16.7973H12.3015C12.7132 16.7877 13.0772 16.5273 13.2193 16.1408C13.3849 15.7657 13.3055 15.3276 13.0187 15.0345L12.9823 14.998C12.754 14.77 12.6257 14.4605 12.6257 14.1379C12.6257 13.8152 12.754 13.5058 12.9823 13.2777C13.2103 13.0494 13.5197 12.9212 13.8424 12.9212C14.1651 12.9212 14.4745 13.0494 14.7025 13.2777L14.739 13.3142C15.0321 13.6009 15.4702 13.6803 15.8453 13.5148H15.894C16.2614 13.3573 16.5002 12.9967 16.5018 12.5969V12.4936C16.5018 11.8221 17.0461 11.2778 17.7176 11.2778C18.389 11.2778 18.9333 11.8221 18.9333 12.4936V12.5483C18.9349 12.948 19.1737 13.3087 19.5412 13.4662C19.9163 13.6317 20.3544 13.5523 20.6475 13.2656L20.684 13.2291C20.912 13.0008 21.2214 12.8725 21.5441 12.8725C21.8668 12.8725 22.1762 13.0008 22.4042 13.2291C22.6325 13.4571 22.7608 13.7666 22.7608 14.0892C22.7608 14.4119 22.6325 14.7213 22.4042 14.9494L22.3678 14.9858C22.0811 15.2789 22.0016 15.7171 22.1672 16.0922L22.1672 16.1408C22.3247 16.5082 22.6853 16.7471 23.0851 16.7487H23.1884C23.8598 16.7487 24.4041 17.293 24.4041 17.9644C24.4041 18.6358 23.8598 19.1801 23.1884 19.1801H23.1337C22.7339 19.1817 22.3733 19.4206 22.2158 19.788L22.2158 19.788Z" stroke="#004BFE" stroke-linecap="round" stroke-linejoin="round"/>
</g>
<defs>
<clipPath id="clip0_0_979">
<rect width="35" height="35" fill="white"/>
</clipPath>
<clipPath id="clip1_0_979">
<rect width="13.3731" height="13.3731" fill="white" transform="translate(11.031 11.2778)"/>
</clipPath>
</defs>
</svg>
