<svg width="17" height="10" viewBox="0 0 17 10" fill="none" xmlns="http://www.w3.org/2000/svg">
<g clip-path="url(#clip0_2_6503)">
<path d="M8.49689 2.93084L2.0688 9.36405C1.9564 9.47722 1.82273 9.56703 1.67548 9.62831C1.52822 9.6896 1.3703 9.72115 1.2108 9.72115C1.0513 9.72115 0.89338 9.6896 0.746127 9.62831C0.598873 9.56703 0.465199 9.47722 0.352799 9.36405C0.126423 9.13483 -0.000516405 8.82565 -0.000516377 8.50349C-0.000516349 8.18133 0.126423 7.87214 0.352799 7.64292L7.6353 0.354265C7.85622 0.133871 8.15361 0.00714685 8.46559 0.000459983C8.77757 -0.00622688 9.08012 0.107639 9.31028 0.318365L16.6441 7.63677C16.8605 7.86657 16.9791 8.17157 16.9747 8.48724C16.9702 8.8029 16.8431 9.10446 16.6203 9.32809C16.3975 9.55172 16.0964 9.67987 15.7807 9.68544C15.4651 9.691 15.1597 9.57354 14.9291 9.3579L8.49689 2.93084Z" fill="#004BFE"/>
</g>
<defs>
<clipPath id="clip0_2_6503">
<rect width="16.574" height="9.476" fill="white" transform="translate(17 9.71965) scale(1.0257) rotate(-180)"/>
</clipPath>
</defs>
</svg>
