<svg width="23" height="21" viewBox="0 0 23 21" fill="none" xmlns="http://www.w3.org/2000/svg">
<path d="M11.205 18.9645C16.1357 15.5843 18.7217 12.5092 19.7822 9.93554C21.7736 5.10116 18.3829 2.03521 15.0387 2.03521C13.6118 2.03521 12.1929 2.59385 11.205 3.81153C10.2169 2.5936 8.79851 2.03521 7.37133 2.03521C4.02746 2.03521 0.636623 5.10158 2.62787 9.93554C3.68839 12.5092 6.27434 15.5843 11.205 18.9645ZM11.205 20.9997C10.803 20.9997 10.401 20.8809 10.0542 20.6432C5.23109 17.3366 2.0994 13.995 0.746157 10.7109C-0.379109 7.97922 -0.227497 5.32307 1.17297 3.23153C2.50766 1.23825 4.88273 0 7.37133 0C8.7656 0 10.0904 0.392605 11.205 1.112C12.3196 0.392608 13.6445 0 15.0387 0C17.5275 0 19.9026 1.2382 21.2373 3.23139C22.6377 5.32285 22.7892 7.97905 21.664 10.7107C20.3107 13.995 17.179 17.3366 12.3558 20.6432C12.009 20.8809 11.607 20.9997 11.205 20.9997Z" fill="#004CFF"/>
</svg>
