<svg width="26" height="19" viewBox="0 0 26 19" fill="none" xmlns="http://www.w3.org/2000/svg">
<path d="M21.84 7.90563C22.0066 7.47094 22.1 6.99563 22.1 6.5C22.1 4.34688 20.3531 2.6 18.2 2.6C17.3997 2.6 16.6522 2.84375 16.0347 3.25813C14.9094 1.30813 12.8091 0 10.4 0C6.80875 0 3.9 2.90875 3.9 6.5C3.9 6.60969 3.90406 6.71937 3.90812 6.82906C1.63313 7.62937 0 9.79875 0 12.35C0 15.5797 2.62031 18.2 5.85 18.2H20.8C23.6722 18.2 26 15.8722 26 13C26 10.4853 24.2125 8.385 21.84 7.90563Z" fill="#004CFF"/>
</svg>
