<svg width="21" height="16" viewBox="0 0 21 16" fill="none" xmlns="http://www.w3.org/2000/svg">
<mask id="path-1-inside-1_0_13459" fill="white">
<path fill-rule="evenodd" clip-rule="evenodd" d="M14.6035 1H5.60449C3.94764 1 2.60449 2.34315 2.60449 4V6.7476C2.3303 6.52996 1.98302 6.3999 1.60526 6.3999H1.60449V4C1.60449 1.79086 3.39535 0 5.60449 0H14.6035C16.8126 0 18.6035 1.79086 18.6035 4V6.3999C18.2254 6.39997 17.8778 6.53035 17.6035 6.74843V4C17.6035 2.34315 16.2604 1 14.6035 1ZM17.6035 9.25137V12C17.6035 13.6569 16.2604 15 14.6035 15H5.60449C3.94764 15 2.60449 13.6569 2.60449 12V9.2522C2.3303 9.46985 1.98302 9.59991 1.60526 9.59991H1.60449V12C1.60449 14.2092 3.39535 16 5.60449 16H14.6035C16.8126 16 18.6035 14.2092 18.6035 12V9.59991C18.2254 9.59984 17.8778 9.46946 17.6035 9.25137ZM18.6035 7.3999V8.59991C18.2663 8.59975 17.9985 8.32809 17.9985 7.9999C17.9985 7.67171 18.2663 7.40005 18.6035 7.3999ZM1.60449 7.3999V8.59991H1.60526C1.94263 8.59991 2.21052 8.32819 2.21052 7.9999C2.21052 7.67162 1.94263 7.3999 1.60526 7.3999L1.60449 7.3999Z"/>
</mask>
<path d="M2.60449 6.7476L1.98278 7.53085L3.60449 8.81809V6.7476H2.60449ZM1.60449 6.3999H0.604492V7.3999H1.60449V6.3999ZM18.6035 6.3999L18.6037 7.3999L19.6035 7.39973V6.3999H18.6035ZM17.6035 6.74843H16.6035V8.82112L18.2259 7.53117L17.6035 6.74843ZM17.6035 9.25137L18.2259 8.46864L16.6035 7.17869V9.25137H17.6035ZM2.60449 9.2522H3.60449V7.18172L1.98278 8.46896L2.60449 9.2522ZM1.60449 9.59991V8.59991H0.604492V9.59991H1.60449ZM18.6035 9.59991H19.6035V8.60008L18.6037 8.59991L18.6035 9.59991ZM18.6035 8.59991L18.6031 9.59991L19.6035 9.60036V8.59991H18.6035ZM18.6035 7.3999H19.6035V6.39945L18.6031 6.3999L18.6035 7.3999ZM1.60449 8.59991H0.604492V9.59991H1.60449V8.59991ZM1.60449 7.3999L1.60387 6.3999L0.604492 6.40053V7.3999H1.60449ZM1.60526 7.3999V6.3999H1.60463L1.60526 7.3999ZM5.60449 2H14.6035V0H5.60449V2ZM3.60449 4C3.60449 2.89543 4.49992 2 5.60449 2V0C3.39535 0 1.60449 1.79086 1.60449 4H3.60449ZM3.60449 6.7476V4H1.60449V6.7476H3.60449ZM1.60526 7.3999C1.74956 7.3999 1.8793 7.44871 1.98278 7.53085L3.2262 5.96435C2.7813 5.61121 2.21647 5.3999 1.60526 5.3999V7.3999ZM1.60449 7.3999H1.60526V5.3999H1.60449V7.3999ZM0.604492 4V6.3999H2.60449V4H0.604492ZM5.60449 -1C2.84307 -1 0.604492 1.23858 0.604492 4H2.60449C2.60449 2.34315 3.94764 1 5.60449 1V-1ZM14.6035 -1H5.60449V1H14.6035V-1ZM19.6035 4C19.6035 1.23858 17.3649 -1 14.6035 -1V1C16.2604 1 17.6035 2.34315 17.6035 4H19.6035ZM19.6035 6.3999V4H17.6035V6.3999H19.6035ZM18.2259 7.53117C18.3294 7.44885 18.4592 7.39993 18.6037 7.3999L18.6033 5.3999C17.9915 5.40001 17.4262 5.61184 16.9812 5.9657L18.2259 7.53117ZM16.6035 4V6.74843H18.6035V4H16.6035ZM14.6035 2C15.7081 2 16.6035 2.89543 16.6035 4H18.6035C18.6035 1.79086 16.8126 0 14.6035 0V2ZM16.6035 9.25137V12H18.6035V9.25137H16.6035ZM16.6035 12C16.6035 13.1046 15.7081 14 14.6035 14V16C16.8126 16 18.6035 14.2092 18.6035 12H16.6035ZM14.6035 14H5.60449V16H14.6035V14ZM5.60449 14C4.49992 14 3.60449 13.1046 3.60449 12H1.60449C1.60449 14.2092 3.39535 16 5.60449 16V14ZM3.60449 12V9.2522H1.60449V12H3.60449ZM1.98278 8.46896C1.8793 8.5511 1.74956 8.59991 1.60526 8.59991V10.5999C2.21647 10.5999 2.7813 10.3886 3.2262 10.0355L1.98278 8.46896ZM1.60526 8.59991H1.60449V10.5999H1.60526V8.59991ZM0.604492 9.59991V12H2.60449V9.59991H0.604492ZM0.604492 12C0.604492 14.7614 2.84307 17 5.60449 17V15C3.94764 15 2.60449 13.6569 2.60449 12H0.604492ZM5.60449 17H14.6035V15H5.60449V17ZM14.6035 17C17.3649 17 19.6035 14.7614 19.6035 12H17.6035C17.6035 13.6569 16.2604 15 14.6035 15V17ZM19.6035 12V9.59991H17.6035V12H19.6035ZM18.6037 8.59991C18.4592 8.59988 18.3294 8.55096 18.2259 8.46864L16.9812 10.0341C17.4262 10.388 17.9915 10.5998 18.6033 10.5999L18.6037 8.59991ZM19.6035 8.59991V7.3999H17.6035V8.59991H19.6035ZM16.9985 7.9999C16.9985 8.88177 17.7153 9.59951 18.6031 9.59991L18.604 7.59991C18.8173 7.6 18.9985 7.77442 18.9985 7.9999H16.9985ZM18.6031 6.3999C17.7153 6.4003 16.9985 7.11804 16.9985 7.9999H18.9985C18.9985 8.22538 18.8173 8.39981 18.604 8.3999L18.6031 6.3999ZM2.60449 8.59991V7.3999H0.604492V8.59991H2.60449ZM1.60526 7.59991H1.60449V9.59991H1.60526V7.59991ZM1.21052 7.9999C1.21052 7.77436 1.39188 7.59991 1.60526 7.59991V9.59991C2.49337 9.59991 3.21052 8.88201 3.21052 7.9999H1.21052ZM1.60526 8.3999C1.39188 8.3999 1.21052 8.22545 1.21052 7.9999H3.21052C3.21052 7.1178 2.49337 6.3999 1.60526 6.3999V8.3999ZM1.60512 8.3999H1.60588L1.60463 6.3999L1.60387 6.3999L1.60512 8.3999Z" fill="#004CFF" mask="url(#path-1-inside-1_0_13459)"/>
<path d="M3.604 8H16.604" stroke="#004CFF" stroke-dasharray="1"/>
</svg>
