<svg width="12" height="12" viewBox="0 0 12 12" fill="none" xmlns="http://www.w3.org/2000/svg">
<path d="M7.42183 5.99842L11.7078 1.71249C12.0974 1.32286 12.0974 0.681853 11.7078 0.292223C11.3181 -0.0974077 10.6771 -0.0974077 10.2875 0.292223L6.00156 4.57816L1.71563 0.292223C1.326 -0.0974067 0.684996 -0.0974067 0.295366 0.292223C0.100551 0.487038 9.94885e-07 0.744698 9.94885e-07 1.00236C9.94885e-07 1.26001 0.100551 1.51767 0.295366 1.71249L4.5813 5.99842L0.295365 10.2844C0.10055 10.4792 0 10.7368 0 10.9945C0 11.2521 0.10055 11.5098 0.295365 11.7046C0.684995 12.0943 1.326 12.0943 1.71563 11.7046L6.00156 7.41868L10.2875 11.7046C10.6771 12.0943 11.3181 12.0943 11.7078 11.7046C12.0974 11.315 12.0974 10.674 11.7078 10.2844L7.42183 5.99842Z" fill="white"/>
</svg>
