<svg width="335" height="130" viewBox="0 0 335 130" fill="none" xmlns="http://www.w3.org/2000/svg">
<g clip-path="url(#clip0_0_10558)">
<mask id="mask0_0_10558" style="mask-type:alpha" maskUnits="userSpaceOnUse" x="0" y="0" width="335" height="130">
<rect width="335" height="130" rx="9" fill="black"/>
</mask>
<g mask="url(#mask0_0_10558)">
<path d="M-17.7663 156.306C-66.6736 132.111 0.465898 83.8215 37.5692 77.2792C74.6724 70.7369 110.054 95.5115 116.596 132.615C123.139 169.718 98.3642 205.1 61.2609 211.642C24.1577 218.184 31.141 180.502 -17.7663 156.306Z" fill="#004BFE"/>
<path opacity="0.62" d="M468.109 22.992C544.563 48.3107 456.35 132.683 403.463 149.867C350.576 167.051 293.772 138.108 276.588 85.2209C259.404 32.3339 296.837 -7.26851 343.8 -26.7835C390.762 -46.2984 391.655 -2.32669 468.109 22.992Z" fill="#EABC33"/>
<path d="M334.782 68.148C367.103 24.1852 403 98.6901 403 136.366C403 174.041 372.457 204.584 334.782 204.584C297.106 204.584 266.564 174.041 266.564 136.366C266.564 98.6901 302.461 112.111 334.782 68.148Z" fill="#004BFE"/>
</g>
</g>
<defs>
<clipPath id="clip0_0_10558">
<rect width="335" height="130" fill="white"/>
</clipPath>
</defs>
</svg>
