<svg width="16" height="16" viewBox="0 0 16 16" fill="none" xmlns="http://www.w3.org/2000/svg">
<path d="M9.68625 6.31397L6.31298 9.68724C5.87966 9.25391 5.61299 8.66059 5.61299 8.0006C5.61299 6.68063 6.67964 5.61398 7.99961 5.61398C8.6596 5.61398 9.25292 5.88064 9.68625 6.31397Z" stroke="#1F1F1F" stroke-width="0.988201" stroke-linecap="round" stroke-linejoin="round"/>
<path d="M11.8795 3.84728C10.7129 2.9673 9.37955 2.48731 7.99958 2.48731C5.64629 2.48731 3.453 3.87395 1.92637 6.2739C1.32638 7.21388 1.32638 8.79385 1.92637 9.73383C2.45302 10.5605 3.06634 11.2738 3.733 11.8471" stroke="#1F1F1F" stroke-width="0.988201" stroke-linecap="round" stroke-linejoin="round"/>
<path d="M5.61299 13.0211C6.37298 13.341 7.17963 13.5144 7.99961 13.5144C10.3529 13.5144 12.5462 12.1277 14.0728 9.72779C14.6728 8.78781 14.6728 7.20784 14.0728 6.26786C13.8528 5.9212 13.6128 5.59454 13.3662 5.28788" stroke="#1F1F1F" stroke-width="0.988201" stroke-linecap="round" stroke-linejoin="round"/>
<path d="M10.3405 8.46791C10.1671 9.4079 9.40048 10.1745 8.4605 10.3479" stroke="#1F1F1F" stroke-width="0.988201" stroke-linecap="round" stroke-linejoin="round"/>
<path d="M6.31348 9.68736L1.33358 14.6673" stroke="#1F1F1F" stroke-width="0.988201" stroke-linecap="round" stroke-linejoin="round"/>
<path d="M14.6668 1.33407L9.68686 6.31398" stroke="#1F1F1F" stroke-width="0.988201" stroke-linecap="round" stroke-linejoin="round"/>
</svg>
