<svg width="18" height="19" viewBox="0 0 18 19" fill="none" xmlns="http://www.w3.org/2000/svg">
<g clip-path="url(#clip0_0_1632)">
<path d="M2.17241 3.96484H15.8276C16.6846 3.96484 17.3793 4.66369 17.3793 5.52577L18 17.3888C18 18.2508 17.3053 18.9497 16.4483 18.9497H1.55172C0.69473 18.9497 0 18.2508 0 17.3888L0.620689 5.52577C0.620689 4.66369 1.31542 3.96484 2.17241 3.96484Z" fill="#D97474"/>
<path d="M5.2041 7.20998V2.99626C5.2041 1.34147 6.33713 -3.57628e-07 7.7348 0H10.0377C11.4353 0 12.5684 1.34147 12.5684 2.99626V7.20998" stroke="white" stroke-width="2" stroke-linecap="round"/>
<path d="M5.2041 3.56698V2.99626C5.2041 1.34147 6.33713 -3.57628e-07 7.7348 0H10.0377C11.4353 0 12.5684 1.34147 12.5684 2.99626V3.56698" stroke="#D97474" stroke-width="2" stroke-linecap="round"/>
</g>
<defs>
<clipPath id="clip0_0_1632">
<rect width="18" height="18.9499" fill="white"/>
</clipPath>
</defs>
</svg>
