<svg width="18" height="20" viewBox="0 0 18 20" fill="none" xmlns="http://www.w3.org/2000/svg">
<path fill-rule="evenodd" clip-rule="evenodd" d="M11.4285 0H5.71423V1.90474H11.4285V0ZM7.61898 12.3808H9.52372V6.6666H7.61898V12.3808ZM15.2665 6.08566L16.6189 4.73329C16.2094 4.24758 15.7618 3.79044 15.276 3.39044L13.9237 4.74281C12.4475 3.56187 10.5904 2.85712 8.57135 2.85712C3.83806 2.85712 0 6.69517 0 11.4285C0 16.1618 3.82854 19.9998 8.57135 19.9998C13.3142 19.9998 17.1427 16.1618 17.1427 11.4285C17.1427 9.40944 16.4379 7.55231 15.2665 6.08566ZM8.57135 18.0951C4.88567 18.0951 1.90474 15.1141 1.90474 11.4285C1.90474 7.74278 4.88567 4.76186 8.57135 4.76186C12.257 4.76186 15.238 7.74278 15.238 11.4285C15.238 15.1141 12.257 18.0951 8.57135 18.0951Z" fill="white"/>
</svg>
