<svg width="108" height="22" viewBox="0 0 108 22" fill="none" xmlns="http://www.w3.org/2000/svg">
<g filter="url(#filter0_d_0_4807)">
<mask id="path-1-inside-1_0_4807" fill="white">
<path fill-rule="evenodd" clip-rule="evenodd" d="M21.2501 15C19.65 19.0974 15.664 22 11 22C4.92487 22 0 17.0751 0 11C0 4.92487 4.92487 0 11 0C15.664 0 19.65 2.90264 21.2501 7H104C106.209 7 108 8.79086 108 11C108 13.2091 106.209 15 104 15H21.2501Z"/>
</mask>
<path fill-rule="evenodd" clip-rule="evenodd" d="M21.2501 15C19.65 19.0974 15.664 22 11 22C4.92487 22 0 17.0751 0 11C0 4.92487 4.92487 0 11 0C15.664 0 19.65 2.90264 21.2501 7H104C106.209 7 108 8.79086 108 11C108 13.2091 106.209 15 104 15H21.2501Z" fill="#004CFF"/>
<path d="M21.2501 15V13H19.8841L19.3871 14.2725L21.2501 15ZM21.2501 7L19.3871 7.72755L19.8841 9H21.2501V7ZM11 24C16.5151 24 21.2234 20.5664 23.1131 15.7275L19.3871 14.2725C18.0766 17.6283 14.8128 20 11 20V24ZM-2 11C-2 18.1797 3.8203 24 11 24V20C6.02944 20 2 15.9706 2 11H-2ZM11 -2C3.8203 -2 -2 3.8203 -2 11H2C2 6.02944 6.02944 2 11 2V-2ZM23.1131 6.27245C21.2234 1.43356 16.5151 -2 11 -2V2C14.8128 2 18.0766 4.37173 19.3871 7.72755L23.1131 6.27245ZM21.2501 9H104V5H21.2501V9ZM104 9C105.105 9 106 9.89543 106 11H110C110 7.68629 107.314 5 104 5V9ZM106 11C106 12.1046 105.105 13 104 13V17C107.314 17 110 14.3137 110 11H106ZM104 13H21.2501V17H104V13Z" fill="white" mask="url(#path-1-inside-1_0_4807)"/>
</g>
<defs>
<filter id="filter0_d_0_4807" x="-6" y="-3" width="120" height="34" filterUnits="userSpaceOnUse" color-interpolation-filters="sRGB">
<feFlood flood-opacity="0" result="BackgroundImageFix"/>
<feColorMatrix in="SourceAlpha" type="matrix" values="0 0 0 0 0 0 0 0 0 0 0 0 0 0 0 0 0 0 127 0" result="hardAlpha"/>
<feOffset dy="3"/>
<feGaussianBlur stdDeviation="3"/>
<feColorMatrix type="matrix" values="0 0 0 0 0 0 0 0 0 0 0 0 0 0 0 0 0 0 0.160784 0"/>
<feBlend mode="normal" in2="BackgroundImageFix" result="effect1_dropShadow_0_4807"/>
<feBlend mode="normal" in="SourceGraphic" in2="effect1_dropShadow_0_4807" result="shape"/>
</filter>
</defs>
</svg>
