<svg width="18" height="20" viewBox="0 0 18 20" fill="none" xmlns="http://www.w3.org/2000/svg">
<path d="M2.17241 5.12598H15.8276C16.6846 5.12598 17.3793 5.81727 17.3793 6.67003L18 18.4048C18 19.2576 17.3053 19.9489 16.4483 19.9489H1.55172C0.69473 19.9489 0 19.2576 0 18.4048L0.620689 6.67003C0.620689 5.81727 1.31542 5.12598 2.17241 5.12598Z" fill="#D97474"/>
<path d="M4.398 8.50448V4.11865C4.398 2.39627 5.78447 1 7.49477 1H10.3128C12.0231 1 13.4095 2.39627 13.4095 4.11865V8.50448" stroke="white" stroke-width="2" stroke-linecap="round"/>
<path d="M4.398 4.71268V4.11865C4.398 2.39627 5.78447 1 7.49477 1H10.3128C12.0231 1 13.4095 2.39627 13.4095 4.11865V4.71268" stroke="#D97474" stroke-width="2" stroke-linecap="round"/>
</svg>
