<svg width="18" height="14" viewBox="0 0 18 14" fill="none" xmlns="http://www.w3.org/2000/svg">
<path d="M17.8406 5.58452L11.2279 0.100031C11.1482 0.0335527 11.0732 -0.00384159 10.9654 0.000313172C10.7592 0.00862269 10.4968 0.137426 10.4968 0.332707V3.08326C10.4968 3.16636 10.4218 3.24115 10.3281 3.25361C3.75278 4.14692 0.983013 8.50958 0.00351705 13.0384C-0.0339756 13.2171 0.237846 13.3833 0.364384 13.242C2.76391 10.5621 5.68365 8.81289 10.2999 8.77965C10.403 8.77965 10.4968 8.88768 10.4968 8.97909V11.6798C10.4968 11.9706 10.9326 12.0994 11.1763 11.9L17.836 6.31994C17.9578 6.22022 17.9953 6.10389 18 5.97093C17.9953 5.83797 17.9578 5.68424 17.8406 5.58452Z" fill="#B5A2A2"/>
</svg>
