<svg width="22" height="24" viewBox="0 0 22 24" fill="none" xmlns="http://www.w3.org/2000/svg">
<path d="M14.3974 4.6897C14.3974 6.72548 12.7471 8.3758 10.7113 8.3758C8.67555 8.3758 7.02522 6.72548 7.02522 4.6897C7.02522 2.65393 8.67555 1.0036 10.7113 1.0036C12.7471 1.0036 14.3974 2.65393 14.3974 4.6897Z" stroke="black" stroke-width="2"/>
<g clip-path="url(#clip0_2_3651)">
<path d="M20.9964 23.1474V18.7406C20.9542 17.4564 20.4043 16.2414 19.4673 15.3621C18.5303 14.4829 17.2827 14.0113 15.9984 14.0508H6.00154C4.71724 14.0113 3.46971 14.4829 2.53271 15.3621C1.59572 16.2414 1.04579 17.4564 1.0036 18.7406V23.1474" stroke="black" stroke-width="2"/>
</g>
<defs>
<clipPath id="clip0_2_3651">
<rect width="21.921" height="10.064" fill="white" transform="translate(0 13.0468) scale(1.0036)"/>
</clipPath>
</defs>
</svg>
