<svg width="15" height="16" viewBox="0 0 15 16" fill="none" xmlns="http://www.w3.org/2000/svg">
<path fill-rule="evenodd" clip-rule="evenodd" d="M0.918026 15.082C0.918026 15.5898 1.32827 16 1.83605 16H6.42618V8.26223H0.918026V15.082ZM8.26223 16H12.8524C13.3601 16 13.7704 15.5898 13.7704 15.082V8.26223H8.26223V16ZM13.7704 3.6721H12.5626C12.7405 3.32497 12.8524 2.94055 12.8524 2.52457C12.8524 1.13319 11.7192 0 10.3278 0C9.13435 0 8.36264 0.611061 7.37289 1.95941C6.38315 0.611061 5.61143 0 4.418 0C3.02662 0 1.89343 1.13319 1.89343 2.52457C1.89343 2.94055 2.00244 3.32497 2.18318 3.6721H0.918026C0.410243 3.6721 0 4.08234 0 4.59013V6.88519C0 7.13765 0.206556 7.34421 0.459013 7.34421H14.2294C14.4819 7.34421 14.6884 7.13765 14.6884 6.88519V4.59013C14.6884 4.08234 14.2782 3.6721 13.7704 3.6721ZM4.41513 3.6721C3.78112 3.6721 3.2676 3.15858 3.2676 2.52457C3.2676 1.89056 3.78112 1.37704 4.41513 1.37704C4.98603 1.37704 5.40774 1.47171 6.88519 3.6721H4.41513H4.41513ZM10.3278 3.6721H7.85773C9.3323 1.47745 9.74255 1.37704 10.3278 1.37704C10.9618 1.37704 11.4753 1.89056 11.4753 2.52457C11.4753 3.15858 10.9618 3.6721 10.3278 3.6721Z" fill="#004CFF"/>
</svg>
