<svg width="58" height="64" viewBox="0 0 58 64" fill="none" xmlns="http://www.w3.org/2000/svg">
<path d="M7 15.5591H51C53.7614 15.5591 56 17.7977 56 20.5591L58 58.5591C58 61.3205 55.7614 63.5591 53 63.5591H5C2.23858 63.5591 0 61.3205 0 58.5591L2 20.5591C2 17.7977 4.23858 15.5591 7 15.5591Z" fill="#004CFF"/>
<path d="M13.919 26.2496V12.3697C13.919 6.9188 18.466 2.5 24.0751 2.5H33.3169C38.9259 2.5 43.473 6.9188 43.473 12.3697V26.2496" stroke="white" stroke-width="5" stroke-linecap="round"/>
<path d="M13.919 14.2496V12.3697C13.919 6.9188 18.466 2.5 24.0751 2.5H33.3169C38.9259 2.5 43.473 6.9188 43.473 12.3697V14.2496" stroke="#004CFF" stroke-width="5" stroke-linecap="round"/>
<path d="M33.4305 32.7154C32.4739 32.4568 31.1296 32.25 29.9404 32.25C25.1318 32.25 23.167 34.706 23.167 37.2913C23.167 39.4887 24.2528 41.0399 27.6395 43.3666C29.9921 44.9695 31.0262 45.8743 31.0262 46.9343C31.0262 48.0459 30.0438 49.0542 28.0531 49.0542C26.3727 49.0542 24.3045 48.5888 23.4255 48.2527L23.3738 51.6394C24.3045 51.9238 26.5278 52.234 27.8205 52.234C32.0344 52.234 34.8265 49.959 34.8265 46.7791C34.8265 44.4266 33.0944 42.7461 30.2764 40.7813C27.9239 39.1526 26.9156 38.2995 26.9156 37.2654C26.9156 36.1537 27.7946 35.4299 29.9404 35.4299C31.0779 35.4299 32.4739 35.6884 33.3787 36.0503L33.4305 32.7154Z" fill="white"/>
</svg>
