<svg width="32" height="37" viewBox="0 0 32 37" fill="none" xmlns="http://www.w3.org/2000/svg">
<path fill-rule="evenodd" clip-rule="evenodd" d="M0.5 5.59831C15.1774 7.55388 26.5 20.1217 26.5 35.334C26.5 35.4435 26.4994 35.5529 26.4982 35.6621H31.4985C31.4995 35.5528 31.5 35.4435 31.5 35.334C31.5 17.3566 17.9463 2.54493 0.5 0.560043L0.5 5.59831Z" fill="#004CFF"/>
<path d="M0.5 5.59831H0V6.03611L0.433964 6.09393L0.5 5.59831ZM26.4982 35.6621L25.9983 35.6568L25.9929 36.1621H26.4982V35.6621ZM31.4985 35.6621V36.1621H31.9939L31.9985 35.6667L31.4985 35.6621ZM0.5 0.560043L0.556522 0.0632477L0 -6.86646e-05V0.560043H0.5ZM27 35.334C27 19.8677 15.4886 7.09092 0.566036 5.10269L0.433964 6.09393C14.8663 8.01685 26 20.3756 26 35.334H27ZM26.9982 35.6674C26.9994 35.5564 27 35.4453 27 35.334H26C26 35.4417 25.9994 35.5493 25.9983 35.6568L26.9982 35.6674ZM31.4985 35.1621H26.4982V36.1621H31.4985V35.1621ZM31 35.334C31 35.442 30.9995 35.5498 30.9985 35.6575L31.9985 35.6667C31.9995 35.5559 32 35.445 32 35.334H31ZM0.443478 1.05684C17.64 3.01331 31 17.6138 31 35.334H32C32 17.0995 18.2526 2.07655 0.556522 0.0632477L0.443478 1.05684ZM1 5.59831L1 0.560043H0L0 5.59831H1Z" fill="#004CFF"/>
</svg>
