<svg width="14" height="15" viewBox="0 0 14 15" fill="none" xmlns="http://www.w3.org/2000/svg">
<g clip-path="url(#clip0_0_6784)">
<path d="M1.68966 3.20911H12.3103C12.9769 3.20911 13.5172 3.74679 13.5172 4.41004L14 13.5371C14 14.2004 13.4597 14.738 12.7931 14.738H1.2069C0.540346 14.738 0 14.2004 0 13.5371L0.482758 4.41004C0.482758 3.74679 1.0231 3.20911 1.68966 3.20911Z" fill="#004CFF"/>
<path d="M3.42115 5.83682V2.42561C3.42115 1.08598 4.49952 -3.03625e-07 5.82975 0H8.02152C9.35176 0 10.4301 1.08598 10.4301 2.42561V5.83682" stroke="white" stroke-width="2" stroke-linecap="round"/>
<path d="M3.42115 2.88764V2.42561C3.42115 1.08598 4.49952 -3.03625e-07 5.82975 0H8.02152C9.35176 0 10.4301 1.08598 10.4301 2.42561V2.88764" stroke="#004CFF" stroke-width="2" stroke-linecap="round"/>
</g>
<defs>
<clipPath id="clip0_0_6784">
<rect width="13.7417" height="14.4662" fill="white" transform="scale(1.0188)"/>
</clipPath>
</defs>
</svg>
